<?xml version="1.0" encoding="UTF-8"?>
<svg xmlns="http://www.w3.org/2000/svg" width="1080" height="1920" viewBox="0 0 1080 1920">
  <defs><linearGradient id="topScrim" x1="0" y1="0" x2="0" y2="1">
         <stop offset="0" stop-color="#22C55E" stop-opacity="0.96"/>
         <stop offset="0.511" stop-color="#22C55E" stop-opacity="0"/>
       </linearGradient>
       <linearGradient id="botScrim" x1="0" y1="0" x2="0" y2="1">
         <stop offset="0.688" stop-color="#04120A" stop-opacity="0"/>
         <stop offset="1" stop-color="#04120A" stop-opacity="0.9"/>
       </linearGradient></defs>
  <rect width="1080" height="1920" fill="url(#topScrim)"/>
       <rect width="1080" height="1920" fill="url(#botScrim)"/>
  <g transform="translate(71,288) scale(0.3)">

  <defs>
    <style>
      .cls-1 {
        fill: #0A0A0A;
      }
    </style>
  </defs>
  <polygon class="cls-1" points="279.46 173.29 279.04 173.29 257.75 114.98 221.74 114.98 221.74 217.77 245.49 217.77 245.49 147.31 246.11 147.31 271.54 217.77 286.95 217.77 312.38 147.31 313.01 147.31 313.01 217.77 336.76 217.77 336.76 114.98 300.74 114.98 279.46 173.29"/>
  <path class="cls-1" d="M386.41,138.48c-8.91,0-16.36,1.92-22.33,5.75-5.95,3.81-10.33,8.76-13.16,14.88-2.83,6.12-4.25,12.69-4.25,19.73s1.42,13.67,4.25,19.78c2.83,6.12,7.21,11.06,13.16,14.83,5.98,3.77,13.32,5.65,22.02,5.65,10.03,0,18.27-2.45,24.74-7.39,6.46-4.96,10.72-11.31,12.79-19.04h-23.75c-1.02,2.55-2.78,4.59-5.29,6.1-2.49,1.49-5.48,2.23-8.96,2.23-4.59,0-8.34-1.44-11.27-4.31-2.94-2.88-4.4-6.32-4.4-10.36v-1.14h54.31v-6.35c0-13.09-3.43-23.08-10.28-30-6.82-6.9-16.02-10.36-27.58-10.36ZM370.58,170.51c.1-4.88,1.52-8.7,4.25-11.45,2.73-2.74,6.42-4.12,11.11-4.12s8.18,1.28,10.9,3.82c2.75,2.55,4.19,6.47,4.3,11.75h-30.56Z"/>
  <path class="cls-1" d="M488.8,151.57h-1.21c-1.47-2.94-4.09-5.85-7.86-8.73-3.77-2.9-9.12-4.36-16.04-4.36-10.28,0-18.18,3.62-23.7,10.86-5.53,7.24-8.28,17.08-8.28,29.5s2.75,22,8.28,29.3c5.52,7.31,13.37,10.96,23.54,10.96,6.82,0,12.07-1.46,15.78-4.41,3.74-2.94,6.5-6.07,8.28-9.42h1.21v12.5h24.38v-110.28h-24.38v44.08ZM484.82,194.41c-2.73,4.4-6.84,6.59-12.32,6.59s-9.72-2.19-12.37-6.59c-2.62-4.39-3.93-9.58-3.93-15.57s1.31-11.06,3.93-15.32c2.65-4.26,6.78-6.4,12.37-6.4s9.72,2.17,12.42,6.5c2.69,4.3,4.04,9.37,4.04,15.22s-1.39,11.18-4.14,15.57Z"/>
  <polygon class="cls-1" points="567.43 202.05 566.54 202.05 535.45 114.98 519.14 114.98 556.1 217.77 577.86 217.77 614.66 114.98 598.51 114.98 567.43 202.05"/>
  <rect class="cls-1" x="625.01" y="140.41" width="15.99" height="77.35"/>
  <path class="cls-1" d="M632.92,107.79c-2.8,0-5.14.89-7.02,2.68-1.86,1.76-2.78,3.95-2.78,6.59s.92,4.85,2.78,6.59c1.89,1.76,4.22,2.63,7.02,2.63s5.11-.89,6.97-2.68c1.89-1.81,2.83-3.99,2.83-6.55s-.94-4.72-2.83-6.55c-1.86-1.81-4.18-2.73-6.97-2.73Z"/>
  <path class="cls-1" d="M697.49,140.41c-5.49,0-9.96,1.21-13.42,3.62-3.46,2.38-5.87,5.28-7.23,8.68h-.94v-12.3h-15.99v77.35h15.99v-42.15c0-7.54,1.65-12.94,4.98-16.21,3.32-3.27,8.03-4.91,14.15-4.91,2.96,0,5.85.38,8.65,1.14l.63-14.38c-1.02-.4-2.04-.62-3.09-.69-1.05-.1-2.29-.15-3.72-.15Z"/>
  <path class="cls-1" d="M737.51,114.98h-15.99v25.44h-14.73v12h14.73l-.16,44.77c0,4.74.43,8.53,1.31,11.4.86,2.88,2.91,5.23,6.13,7.04,3.21,1.82,8.09,2.73,14.63,2.73,2.69,0,5.37-.15,8.07-.45,2.69-.3,4.38-.59,5.09-.89v-10.71c-2.49.59-5.02.89-7.6.89-3.71,0-6.37-.47-7.97-1.44-1.61-.99-2.61-2.31-2.99-3.97-.35-1.69-.52-4.34-.52-7.98v-41.4h19.08v-12h-19.08v-25.44Z"/>
  <path class="cls-1" d="M827.36,184.3c0,6.35-1.82,11.55-5.45,15.62-3.6,4.07-8.57,6.1-14.89,6.1-5.98,0-10.79-1.9-14.42-5.7-3.64-3.83-5.45-9.17-5.45-16.02v-43.88h-15.99v46.06c0,5.49.97,10.71,2.94,15.67,1.99,4.93,5.19,9,9.59,12.2,4.4,3.17,10.12,4.76,17.14,4.76,6.21,0,11.49-1.46,15.83-4.41,4.33-2.94,7.52-6.56,9.59-10.86h1.1v13.93h16.15v-77.35h-16.15v43.88Z"/>
  <path class="cls-1" d="M918.01,153.9h-1.1c-2.18-4.09-5.39-7.71-9.65-10.86-4.23-3.14-9.91-4.71-17.04-4.71s-13.32,1.74-18.45,5.21c-5.11,3.47-9,8.26-11.69,14.33-2.7,6.05-4.04,12.99-4.04,20.83s1.31,14.65,3.93,20.73c2.65,6.05,6.51,10.8,11.59,14.23,5.1,3.45,11.17,5.16,18.19,5.16s12.86-1.59,17.2-4.76c4.36-3.2,7.68-6.95,9.96-11.26h1.1v14.97h16.15v-77.35h-16.15v13.49ZM912.03,198.18c-3.88,5.33-9.52,7.98-16.88,7.98s-13.21-2.65-16.99-7.98c-3.77-5.36-5.66-11.95-5.66-19.78s1.9-14.08,5.71-19.34c3.84-5.28,9.49-7.93,16.93-7.93s13,2.65,16.88,7.93c3.88,5.26,5.82,11.75,5.82,19.49s-1.94,14.28-5.82,19.64Z"/>
  <path class="cls-1" d="M980.51,207.2c-3.6,0-6.24-.52-7.92-1.59-1.65-1.09-2.66-2.5-3.04-4.26-.35-1.79-.52-4.48-.52-8.08v-85.63h-15.99l-.16,88.26c0,4.9.42,8.88,1.26,11.95s2.84,5.6,6.03,7.59c3.21,1.96,8.14,2.93,14.78,2.93,2.9,0,6.51-.25,10.85-.74v-10.86c-1.57.3-3.34.45-5.29.45Z"/>
  <path class="cls-1" d="M131.13,170.42l34.1-34.1s-.02.02-.04.04l10.87-10.87c4.7-4.71,4.7-12.34,0-17.06l-17.05-17.05c-2.17-2.17-4.97-3.34-7.82-3.51-3.32-.2-6.7.97-9.24,3.51l-9.58,9.58-26.1,26.1-9.25,9.26h0l-45.19-45.19c-4.71-4.71-12.35-4.71-17.06,0l-17.05,17.05c-4.71,4.71-4.71,12.35,0,17.06l45.19,45.19-31.14,31.14c-1.01.86-2.01,1.76-2.97,2.71l-6.22,6.22h-.01s-4.85,4.86-4.85,4.86c-4.61,4.61-4.7,12.04-.28,16.77.09.1.18.2.28.29l17.05,17.05c3.28,3.28,7.97,4.27,12.12,2.98l7.08-5.12,34.31-34.32,8.6-8.6s.09.08.13.12l45.19,45.19c4.71,4.71,12.35,4.71,17.06,0l17.05-17.05c4.71-4.71,4.71-12.35,0-17.06l-45.19-45.19ZM163.42,138.04s.07-.06.1-.1c-.03.03-.07.06-.1.1Z"/>
  <circle class="cls-1" cx="97.02" cy="73.23" r="26.48"/>
</g>
  <rect x="71" y="400" width="456" height="44" rx="22" fill="#0A0A0A"/>
  <text x="298.91999999999996" y="429.7" font-family="Be Vietnam Bold" font-size="22" fill="#FFE600" text-anchor="middle" letter-spacing="1.4">BILINGUAL VIRTUAL MEDICAL ADMIN</text>
  <text x="71" y="551.8" font-family="Be Vietnam ExtraBold" font-size="90" fill="#0A0A0A" text-anchor="start">YOUR</text>
<text x="71" y="646.3" font-family="Be Vietnam ExtraBold" font-size="90" fill="#0A0A0A" text-anchor="start">SPANISH-SPEAKING</text>
<text x="71" y="740.8" font-family="Be Vietnam ExtraBold" font-size="90" fill="#0A0A0A" text-anchor="start">PATIENTS SHOULD</text>
<text x="71" y="835.3" font-family="Be Vietnam ExtraBold" font-size="90" fill="#0A0A0A" text-anchor="start">NEVER FEEL LOST</text>
  <text x="71" y="899.1" font-family="Be Vietnam Medium" font-size="33" fill="#052E16" text-anchor="start">A dedicated bilingual virtual medical admin joins your</text>
<text x="71" y="938.7" font-family="Be Vietnam Medium" font-size="33" fill="#052E16" text-anchor="start">team.</text>
  
          <rect x="71" y="1360" width="247" height="54" rx="27" fill="#0A0A0A" opacity="0.62"/>
          <circle cx="98" cy="1387" r="18.360000000000003" fill="#FFFFFF"/>
          <g transform="translate(84.22999999999999,1373.23) scale(0.2754000000000001)"><path d="M18 26 h44 a8 8 0 0 1 8 8 v22 a8 8 0 0 1 -8 8 h-22 l-14 12 v-12 a8 8 0 0 1 -8 -8 v-22 a8 8 0 0 1 8 -8 Z" fill="none" stroke="#0A0A0A" stroke-width="7" stroke-linecap="round" stroke-linejoin="round"/><line x1="30" y1="40" x2="58" y2="40" fill="none" stroke="#0A0A0A" stroke-width="7" stroke-linecap="round" stroke-linejoin="round"/><line x1="30" y1="52" x2="48" y2="52" fill="none" stroke="#0A0A0A" stroke-width="7" stroke-linecap="round" stroke-linejoin="round"/></g>
          <text x="128.36" y="1394.82" font-family="Be Vietnam SemiBold" font-size="23" fill="#FFFFFF">Bilingual Calls</text>
        
          <rect x="334" y="1360" width="206" height="54" rx="27" fill="#0A0A0A" opacity="0.62"/>
          <circle cx="361" cy="1387" r="18.360000000000003" fill="#FFFFFF"/>
          <g transform="translate(347.23,1373.23) scale(0.2754000000000001)"><rect x="16" y="22" width="68" height="62" rx="8" fill="none" stroke="#0A0A0A" stroke-width="7" stroke-linecap="round" stroke-linejoin="round"/><line x1="16" y1="40" x2="84" y2="40" fill="none" stroke="#0A0A0A" stroke-width="7" stroke-linecap="round" stroke-linejoin="round"/><line x1="34" y1="14" x2="34" y2="28" fill="none" stroke="#0A0A0A" stroke-width="7" stroke-linecap="round" stroke-linejoin="round"/><line x1="66" y1="14" x2="66" y2="28" fill="none" stroke="#0A0A0A" stroke-width="7" stroke-linecap="round" stroke-linejoin="round"/><path d="M38 60 L47 69 L64 50" fill="none" stroke="#0A0A0A" stroke-width="7" stroke-linecap="round" stroke-linejoin="round"/></g>
          <text x="391.36" y="1394.82" font-family="Be Vietnam SemiBold" font-size="23" fill="#FFFFFF">Scheduling</text>
        
          <rect x="556" y="1360" width="190" height="54" rx="27" fill="#0A0A0A" opacity="0.62"/>
          <circle cx="583" cy="1387" r="18.360000000000003" fill="#FFFFFF"/>
          <g transform="translate(569.23,1373.23) scale(0.2754000000000001)"><path d="M50 12 L82 24 V50 C82 70 68 82 50 90 C32 82 18 70 18 50 V24 Z" fill="none" stroke="#0A0A0A" stroke-width="7" stroke-linecap="round" stroke-linejoin="round"/><path d="M38 50 L47 59 L64 40" fill="none" stroke="#0A0A0A" stroke-width="7" stroke-linecap="round" stroke-linejoin="round"/></g>
          <text x="613.36" y="1394.82" font-family="Be Vietnam SemiBold" font-size="23" fill="#FFFFFF">Insurance</text>
        
          <rect x="762" y="1360" width="202" height="54" rx="27" fill="#0A0A0A" opacity="0.62"/>
          <circle cx="789" cy="1387" r="18.360000000000003" fill="#FFFFFF"/>
          <g transform="translate(775.23,1373.23) scale(0.2754000000000001)"><circle cx="50" cy="36" r="16" fill="none" stroke="#0A0A0A" stroke-width="7" stroke-linecap="round" stroke-linejoin="round"/><path d="M22 84 C22 64 78 64 78 84" fill="none" stroke="#0A0A0A" stroke-width="7" stroke-linecap="round" stroke-linejoin="round"/></g>
          <text x="819.36" y="1394.82" font-family="Be Vietnam SemiBold" font-size="23" fill="#FFFFFF">Follow-Up</text>
        
  <rect x="71" y="1444" width="321" height="92" rx="46" fill="#0A0A0A"/>
  <text x="117" y="1501.9" font-family="Be Vietnam Bold" font-size="34" fill="#FFFFFF">Learn More</text>
  <path d="M315.92 1490 h26 M333.92 1480 l10 10 l-10 10" fill="none" stroke="#FFFFFF" stroke-width="4" stroke-linecap="round" stroke-linejoin="round"/>
  <text x="417.92" y="1739" font-family="Be Vietnam Medium" font-size="22" fill="#FFFFFF">Dedicated staff — not a call center, not AI, not software.</text>
</svg>