<?xml version="1.0" encoding="UTF-8"?>
<svg xmlns="http://www.w3.org/2000/svg" width="900" height="176" viewBox="0 0 900 176">
  <rect width="900" height="176" fill="#D9D9D9"/>
  <g transform="translate(52.0 12.0)"><rect x="14" y="26" width="778" height="124" rx="62" fill="#052818"/><rect x="13" y="25" width="778" height="124" rx="62" fill="#052818"/><rect x="12" y="24" width="778" height="124" rx="62" fill="#052818"/><rect x="11" y="23" width="778" height="124" rx="62" fill="#052818"/><rect x="10" y="22" width="778" height="124" rx="62" fill="#052818"/><rect x="9" y="21" width="778" height="124" rx="62" fill="#052818"/><rect x="8" y="20" width="778" height="124" rx="62" fill="#052818"/><rect x="7" y="19" width="778" height="124" rx="62" fill="#052818"/><rect x="6" y="18" width="778" height="124" rx="62" fill="#052818"/><rect x="5" y="17" width="778" height="124" rx="62" fill="#052818"/><rect x="4" y="16" width="778" height="124" rx="62" fill="#052818"/><rect x="3" y="15" width="778" height="124" rx="62" fill="#052818"/><rect x="2" y="14" width="778" height="124" rx="62" fill="#052818"/><rect x="1" y="13" width="778" height="124" rx="62" fill="#052818"/>
          <rect x="0" y="0" width="778" height="124" rx="62" fill="#F2D72E" stroke="#075C37" stroke-width="10"/>
          <rect x="12" y="10" width="754" height="8" rx="4" fill="#FFF4D6" opacity="0.85"/>
          <text x="58" y="81.04" font-family="Be Vietnam" font-weight="800" font-size="56" fill="#073F2A">REQUEST AN INTERVIEW</text>
          <path d="M676 62 h34 M696 46 l16 16 l-16 16" fill="none" stroke="#073F2A" stroke-width="9" stroke-linecap="round" stroke-linejoin="round"/></g>
</svg>