<?xml version="1.0" encoding="UTF-8"?>
<svg xmlns="http://www.w3.org/2000/svg" width="1080" height="1350" viewBox="0 0 1080 1350">
  <defs>
    <linearGradient id="lscrim" x1="0" y1="0" x2="1" y2="0">
      <stop offset="0" stop-color="#03161D" stop-opacity="0.94"/>
      <stop offset="0.34" stop-color="#052A38" stop-opacity="0.74"/>
      <stop offset="0.62" stop-color="#052A38" stop-opacity="0.12"/>
      <stop offset="0.82" stop-color="#052A38" stop-opacity="0"/>
    </linearGradient>
    <linearGradient id="bscrim" x1="0" y1="0" x2="0" y2="1">
      <stop offset="0.56" stop-color="#03161D" stop-opacity="0"/>
      <stop offset="1" stop-color="#03161D" stop-opacity="0.66"/>
    </linearGradient>
    <linearGradient id="tscrim" x1="0" y1="0" x2="0" y2="1">
      <stop offset="0" stop-color="#03161D" stop-opacity="0.6"/>
      <stop offset="0.24" stop-color="#03161D" stop-opacity="0"/>
    </linearGradient></defs>
  <rect width="1080" height="1350" fill="url(#tscrim)"/>
  <rect width="1080" height="1350" fill="url(#lscrim)"/>
  <rect width="1080" height="1350" fill="url(#bscrim)"/>
  <g transform="translate(64,56) scale(0.32)">

  <defs>
    <style>
      .cls-1 {
        fill: #FFFFFF;
      }
    </style>
  </defs>
  <polygon class="cls-1" points="279.46 173.29 279.04 173.29 257.75 114.98 221.74 114.98 221.74 217.77 245.49 217.77 245.49 147.31 246.11 147.31 271.54 217.77 286.95 217.77 312.38 147.31 313.01 147.31 313.01 217.77 336.76 217.77 336.76 114.98 300.74 114.98 279.46 173.29"/>
  <path class="cls-1" d="M386.41,138.48c-8.91,0-16.36,1.92-22.33,5.75-5.95,3.81-10.33,8.76-13.16,14.88-2.83,6.12-4.25,12.69-4.25,19.73s1.42,13.67,4.25,19.78c2.83,6.12,7.21,11.06,13.16,14.83,5.98,3.77,13.32,5.65,22.02,5.65,10.03,0,18.27-2.45,24.74-7.39,6.46-4.96,10.72-11.31,12.79-19.04h-23.75c-1.02,2.55-2.78,4.59-5.29,6.1-2.49,1.49-5.48,2.23-8.96,2.23-4.59,0-8.34-1.44-11.27-4.31-2.94-2.88-4.4-6.32-4.4-10.36v-1.14h54.31v-6.35c0-13.09-3.43-23.08-10.28-30-6.82-6.9-16.02-10.36-27.58-10.36ZM370.58,170.51c.1-4.88,1.52-8.7,4.25-11.45,2.73-2.74,6.42-4.12,11.11-4.12s8.18,1.28,10.9,3.82c2.75,2.55,4.19,6.47,4.3,11.75h-30.56Z"/>
  <path class="cls-1" d="M488.8,151.57h-1.21c-1.47-2.94-4.09-5.85-7.86-8.73-3.77-2.9-9.12-4.36-16.04-4.36-10.28,0-18.18,3.62-23.7,10.86-5.53,7.24-8.28,17.08-8.28,29.5s2.75,22,8.28,29.3c5.52,7.31,13.37,10.96,23.54,10.96,6.82,0,12.07-1.46,15.78-4.41,3.74-2.94,6.5-6.07,8.28-9.42h1.21v12.5h24.38v-110.28h-24.38v44.08ZM484.82,194.41c-2.73,4.4-6.84,6.59-12.32,6.59s-9.72-2.19-12.37-6.59c-2.62-4.39-3.93-9.58-3.93-15.57s1.31-11.06,3.93-15.32c2.65-4.26,6.78-6.4,12.37-6.4s9.72,2.17,12.42,6.5c2.69,4.3,4.04,9.37,4.04,15.22s-1.39,11.18-4.14,15.57Z"/>
  <polygon class="cls-1" points="567.43 202.05 566.54 202.05 535.45 114.98 519.14 114.98 556.1 217.77 577.86 217.77 614.66 114.98 598.51 114.98 567.43 202.05"/>
  <rect class="cls-1" x="625.01" y="140.41" width="15.99" height="77.35"/>
  <path class="cls-1" d="M632.92,107.79c-2.8,0-5.14.89-7.02,2.68-1.86,1.76-2.78,3.95-2.78,6.59s.92,4.85,2.78,6.59c1.89,1.76,4.22,2.63,7.02,2.63s5.11-.89,6.97-2.68c1.89-1.81,2.83-3.99,2.83-6.55s-.94-4.72-2.83-6.55c-1.86-1.81-4.18-2.73-6.97-2.73Z"/>
  <path class="cls-1" d="M697.49,140.41c-5.49,0-9.96,1.21-13.42,3.62-3.46,2.38-5.87,5.28-7.23,8.68h-.94v-12.3h-15.99v77.35h15.99v-42.15c0-7.54,1.65-12.94,4.98-16.21,3.32-3.27,8.03-4.91,14.15-4.91,2.96,0,5.85.38,8.65,1.14l.63-14.38c-1.02-.4-2.04-.62-3.09-.69-1.05-.1-2.29-.15-3.72-.15Z"/>
  <path class="cls-1" d="M737.51,114.98h-15.99v25.44h-14.73v12h14.73l-.16,44.77c0,4.74.43,8.53,1.31,11.4.86,2.88,2.91,5.23,6.13,7.04,3.21,1.82,8.09,2.73,14.63,2.73,2.69,0,5.37-.15,8.07-.45,2.69-.3,4.38-.59,5.09-.89v-10.71c-2.49.59-5.02.89-7.6.89-3.71,0-6.37-.47-7.97-1.44-1.61-.99-2.61-2.31-2.99-3.97-.35-1.69-.52-4.34-.52-7.98v-41.4h19.08v-12h-19.08v-25.44Z"/>
  <path class="cls-1" d="M827.36,184.3c0,6.35-1.82,11.55-5.45,15.62-3.6,4.07-8.57,6.1-14.89,6.1-5.98,0-10.79-1.9-14.42-5.7-3.64-3.83-5.45-9.17-5.45-16.02v-43.88h-15.99v46.06c0,5.49.97,10.71,2.94,15.67,1.99,4.93,5.19,9,9.59,12.2,4.4,3.17,10.12,4.76,17.14,4.76,6.21,0,11.49-1.46,15.83-4.41,4.33-2.94,7.52-6.56,9.59-10.86h1.1v13.93h16.15v-77.35h-16.15v43.88Z"/>
  <path class="cls-1" d="M918.01,153.9h-1.1c-2.18-4.09-5.39-7.71-9.65-10.86-4.23-3.14-9.91-4.71-17.04-4.71s-13.32,1.74-18.45,5.21c-5.11,3.47-9,8.26-11.69,14.33-2.7,6.05-4.04,12.99-4.04,20.83s1.31,14.65,3.93,20.73c2.65,6.05,6.51,10.8,11.59,14.23,5.1,3.45,11.17,5.16,18.19,5.16s12.86-1.59,17.2-4.76c4.36-3.2,7.68-6.95,9.96-11.26h1.1v14.97h16.15v-77.35h-16.15v13.49ZM912.03,198.18c-3.88,5.33-9.52,7.98-16.88,7.98s-13.21-2.65-16.99-7.98c-3.77-5.36-5.66-11.95-5.66-19.78s1.9-14.08,5.71-19.34c3.84-5.28,9.49-7.93,16.93-7.93s13,2.65,16.88,7.93c3.88,5.26,5.82,11.75,5.82,19.49s-1.94,14.28-5.82,19.64Z"/>
  <path class="cls-1" d="M980.51,207.2c-3.6,0-6.24-.52-7.92-1.59-1.65-1.09-2.66-2.5-3.04-4.26-.35-1.79-.52-4.48-.52-8.08v-85.63h-15.99l-.16,88.26c0,4.9.42,8.88,1.26,11.95s2.84,5.6,6.03,7.59c3.21,1.96,8.14,2.93,14.78,2.93,2.9,0,6.51-.25,10.85-.74v-10.86c-1.57.3-3.34.45-5.29.45Z"/>
  <path class="cls-1" d="M131.13,170.42l34.1-34.1s-.02.02-.04.04l10.87-10.87c4.7-4.71,4.7-12.34,0-17.06l-17.05-17.05c-2.17-2.17-4.97-3.34-7.82-3.51-3.32-.2-6.7.97-9.24,3.51l-9.58,9.58-26.1,26.1-9.25,9.26h0l-45.19-45.19c-4.71-4.71-12.35-4.71-17.06,0l-17.05,17.05c-4.71,4.71-4.71,12.35,0,17.06l45.19,45.19-31.14,31.14c-1.01.86-2.01,1.76-2.97,2.71l-6.22,6.22h-.01s-4.85,4.86-4.85,4.86c-4.61,4.61-4.7,12.04-.28,16.77.09.1.18.2.28.29l17.05,17.05c3.28,3.28,7.97,4.27,12.12,2.98l7.08-5.12,34.31-34.32,8.6-8.6s.09.08.13.12l45.19,45.19c4.71,4.71,12.35,4.71,17.06,0l17.05-17.05c4.71-4.71,4.71-12.35,0-17.06l-45.19-45.19ZM163.42,138.04s.07-.06.1-.1c-.03.03-.07.06-.1.1Z"/>
  <circle class="cls-1" cx="97.02" cy="73.23" r="26.48"/>
</g>
  <g><circle cx="966" cy="162" r="84" fill="#03161D" opacity="0.5"/><circle cx="958" cy="152" r="84" fill="#00B2E2"/><circle cx="958" cy="152" r="77" fill="none" stroke="#FBF7EE" stroke-width="7"/><path d="M911.8 110 A 60.48 60.48 0 0 1 987.4 91.52000000000001" fill="none" stroke="#ffffff" stroke-width="6" stroke-linecap="round" opacity="0.5"/>
      <g fill="none" stroke="#06333F" stroke-width="9.24" stroke-linecap="round" stroke-linejoin="round">
        <path d="M916 122.6 h46.2 a23.520000000000003 23.520000000000003 0 0 1 23.520000000000003 23.520000000000003 v16.8"/>
        <path d="M979.84 153.68 l10.08 13.44 l13.44 -13.44" />
        <path d="M916 187.28 l15.12 15.12 l33.6 -38.64"/>
      </g></g>
  <text x="74" y="240.4" font-family="Be Vietnam" font-weight="800" font-size="98" fill="#0A3A4A">TRAINED FOR</text><text x="73" y="239.4" font-family="Be Vietnam" font-weight="800" font-size="98" fill="#0A3A4A">TRAINED FOR</text><text x="72" y="238.4" font-family="Be Vietnam" font-weight="800" font-size="98" fill="#0A3A4A">TRAINED FOR</text><text x="71" y="237.4" font-family="Be Vietnam" font-weight="800" font-size="98" fill="#0A3A4A">TRAINED FOR</text><text x="70" y="236.4" font-family="Be Vietnam" font-weight="800" font-size="98" fill="#0A3A4A">TRAINED FOR</text><text x="69" y="235.4" font-family="Be Vietnam" font-weight="800" font-size="98" fill="#0A3A4A">TRAINED FOR</text><text x="68" y="234.4" font-family="Be Vietnam" font-weight="800" font-size="98" fill="#0A3A4A">TRAINED FOR</text><text x="67" y="233.4" font-family="Be Vietnam" font-weight="800" font-size="98" fill="#0A3A4A">TRAINED FOR</text><text x="66" y="232.4" font-family="Be Vietnam" font-weight="800" font-size="98" fill="#0A3A4A">TRAINED FOR</text><text x="65" y="231.4" font-family="Be Vietnam" font-weight="800" font-size="98" fill="#0A3A4A">TRAINED FOR</text><text x="64" y="230.4" font-family="Be Vietnam" font-weight="800" font-size="98" fill="#FFFFFF" stroke="#03202A" stroke-width="5" stroke-linejoin="round" paint-order="stroke">TRAINED FOR</text><text x="74" y="340.3" font-family="Be Vietnam" font-weight="800" font-size="98" fill="#0A3A4A">YOUR</text><text x="73" y="339.3" font-family="Be Vietnam" font-weight="800" font-size="98" fill="#0A3A4A">YOUR</text><text x="72" y="338.3" font-family="Be Vietnam" font-weight="800" font-size="98" fill="#0A3A4A">YOUR</text><text x="71" y="337.3" font-family="Be Vietnam" font-weight="800" font-size="98" fill="#0A3A4A">YOUR</text><text x="70" y="336.3" font-family="Be Vietnam" font-weight="800" font-size="98" fill="#0A3A4A">YOUR</text><text x="69" y="335.3" font-family="Be Vietnam" font-weight="800" font-size="98" fill="#0A3A4A">YOUR</text><text x="68" y="334.3" font-family="Be Vietnam" font-weight="800" font-size="98" fill="#0A3A4A">YOUR</text><text x="67" y="333.3" font-family="Be Vietnam" font-weight="800" font-size="98" fill="#0A3A4A">YOUR</text><text x="66" y="332.3" font-family="Be Vietnam" font-weight="800" font-size="98" fill="#0A3A4A">YOUR</text><text x="65" y="331.3" font-family="Be Vietnam" font-weight="800" font-size="98" fill="#0A3A4A">YOUR</text><text x="64" y="330.3" font-family="Be Vietnam" font-weight="800" font-size="98" fill="#FFFFFF" stroke="#03202A" stroke-width="5" stroke-linejoin="round" paint-order="stroke">YOUR</text><g transform="rotate(-2.2 345.4 399.9)">
    <rect x="65.6" y="359.9" width="575.6" height="100.0" rx="12" fill="#03161D" opacity="0.55"/>
    <rect x="57.6" y="349.9" width="575.6" height="100.0" rx="12" fill="#0D546B" stroke="#00B2E2" stroke-width="4"/>
    <text x="74" y="440.3" font-family="Be Vietnam" font-weight="800" font-size="98" fill="#0A3D4E">WORKFLOW</text><text x="73" y="439.3" font-family="Be Vietnam" font-weight="800" font-size="98" fill="#0A3D4E">WORKFLOW</text><text x="72" y="438.3" font-family="Be Vietnam" font-weight="800" font-size="98" fill="#0A3D4E">WORKFLOW</text><text x="71" y="437.3" font-family="Be Vietnam" font-weight="800" font-size="98" fill="#0A3D4E">WORKFLOW</text><text x="70" y="436.3" font-family="Be Vietnam" font-weight="800" font-size="98" fill="#0A3D4E">WORKFLOW</text><text x="69" y="435.3" font-family="Be Vietnam" font-weight="800" font-size="98" fill="#0A3D4E">WORKFLOW</text><text x="68" y="434.3" font-family="Be Vietnam" font-weight="800" font-size="98" fill="#0A3D4E">WORKFLOW</text><text x="67" y="433.3" font-family="Be Vietnam" font-weight="800" font-size="98" fill="#0A3D4E">WORKFLOW</text><text x="66" y="432.3" font-family="Be Vietnam" font-weight="800" font-size="98" fill="#0A3D4E">WORKFLOW</text><text x="65" y="431.3" font-family="Be Vietnam" font-weight="800" font-size="98" fill="#0A3D4E">WORKFLOW</text>
    <text x="64" y="430.3" font-family="Be Vietnam" font-weight="800" font-size="98" fill="#00B2E2" stroke="#FBF7EE" stroke-width="6" stroke-linejoin="round" paint-order="stroke">WORKFLOW</text>
    <rect x="64.0" y="455.8" width="553.2" height="9" rx="5" fill="#00B2E2"/>
  </g>
  <text x="64" y="516.0" font-family="Be Vietnam" font-weight="700" font-size="44" fill="#00B2E2">HIRE A VIRTUAL MEDICAL</text><text x="64" y="562.6" font-family="Be Vietnam" font-weight="700" font-size="44" fill="#00B2E2">ASSISTANT</text>
  
    <rect x="61" y="613.0" width="48.3" height="48.3" rx="8" fill="#03161D" opacity="0.5"/>
    <rect x="64" y="616.0" width="44.1" height="44.1" rx="8" fill="#00B2E2"/>
    <path d="M74.08 640.36 l8.4 8.4 l16.8 -21" fill="none" stroke="#06333F" stroke-width="5.04" stroke-linecap="round" stroke-linejoin="round"/>
    <text x="130.1" y="648.8" font-family="Be Vietnam" font-weight="700" font-size="42" fill="#FBF7EE">TRAINED ON YOUR EMR</text>
  
    <rect x="61" y="685.0" width="48.3" height="48.3" rx="8" fill="#03161D" opacity="0.5"/>
    <rect x="64" y="688.0" width="44.1" height="44.1" rx="8" fill="#00B2E2"/>
    <path d="M74.08 712.36 l8.4 8.4 l16.8 -21" fill="none" stroke="#06333F" stroke-width="5.04" stroke-linecap="round" stroke-linejoin="round"/>
    <text x="130.1" y="720.8" font-family="Be Vietnam" font-weight="700" font-size="42" fill="#FBF7EE">FULL-TIME STAFF</text>
  
  <g transform="rotate(-3 236.8 868.7)">
      <polygon points="58.8,772.0 62.6,781.0 71.6,784.8 62.6,788.6 58.8,797.6 55.0,788.6 46.0,784.8 55.0,781.0" fill="#00B2E2"/><polygon points="413.2,821.8 416.3,829.1 423.6,832.2 416.3,835.2 413.2,842.6 410.1,835.2 402.8,832.2 410.1,829.1" fill="#FBF7EE"/><polygon points="398.8,956.6 402.4,965.0 410.8,968.6 402.4,972.1 398.8,980.6 395.2,972.1 386.8,968.6 395.2,965.0" fill="#00B2E2"/>
      <rect x="82.0" y="789.2" width="334" height="187" rx="17.6" fill="#03161D" opacity="0.55"/>
      <rect x="70" y="775.16" width="334" height="187" rx="17.6" fill="#0D546B"/>
      <rect x="70" y="775.16" width="334" height="57" fill="#00B2E2"/>
      <text x="236.8" y="816.6" font-family="Be Vietnam" font-weight="700" font-size="38" fill="#06333F" text-anchor="middle" letter-spacing="3">STARTING AT</text>
      <text x="102.0" y="933.2" font-family="Be Vietnam" font-weight="800" font-size="106" fill="#FFFFFF">$10</text>
      <text x="290.6" y="933.2" font-family="Be Vietnam" font-weight="800" font-size="45" fill="#00B2E2">/HR</text>
      <rect x="74.0" y="779.2" width="326" height="179" rx="13.600000000000001" fill="none" stroke="#FBF7EE" stroke-width="4"/>
      <rect x="70" y="775.16" width="334" height="187" rx="17.6" fill="none" stroke="#00B2E2" stroke-width="8"/>
    </g>
  
      <rect x="64" y="1180.0" width="723" height="118" rx="59" fill="#0A3D4E"/>
      <rect x="60.0" y="1188.0" width="731" height="118" rx="59" fill="#03161D" opacity="0.4"/>
      <rect x="64" y="1166" width="723" height="118" rx="59" fill="#00B2E2"/>
      <rect x="64" y="1166" width="723" height="118" rx="59" fill="none" stroke="#FBF7EE" stroke-width="5"/>
      <path d="M90 1186 q335.69 -14 671.38 0" fill="none" stroke="#ffffff" stroke-width="6" stroke-linecap="round" opacity="0.5"/>
      <text x="118" y="1242.7" font-family="Be Vietnam" font-weight="800" font-size="52" fill="#06333F">MEET YOUR NEXT HIRE</text>
      <path d="M703.38 1225 h34 M733.38 1210 l17 15 l-17 15" fill="none" stroke="#06333F" stroke-width="8" stroke-linecap="round" stroke-linejoin="round"/>
    
</svg>