<?xml version="1.0" encoding="UTF-8"?>
<svg xmlns="http://www.w3.org/2000/svg" width="1080" height="1350" viewBox="0 0 1080 1350">
  <defs>
        <radialGradient id="hvig" cx="50%" cy="45%" r="70%">
          <stop offset="0%" stop-color="#000" stop-opacity="0"/>
          <stop offset="100%" stop-color="#000" stop-opacity="0.38"/>
        </radialGradient>
      </defs>
      <rect width="1080" height="1350" fill="#073F2A"/>
      <g><circle cx="12" cy="12" r="2.2" fill="#B8D833" opacity="0.14"/><circle cx="62" cy="12" r="2.6" fill="#B8D833" opacity="0.14"/><circle cx="112" cy="12" r="3" fill="#B8D833" opacity="0.14"/><circle cx="162" cy="12" r="2.2" fill="#B8D833" opacity="0.14"/><circle cx="212" cy="12" r="2.6" fill="#B8D833" opacity="0.14"/><circle cx="262" cy="12" r="3" fill="#B8D833" opacity="0.14"/><circle cx="312" cy="12" r="2.2" fill="#B8D833" opacity="0.14"/><circle cx="362" cy="12" r="2.6" fill="#B8D833" opacity="0.14"/><circle cx="412" cy="12" r="3" fill="#B8D833" opacity="0.14"/><circle cx="462" cy="12" r="2.2" fill="#B8D833" opacity="0.14"/><circle cx="512" cy="12" r="2.6" fill="#B8D833" opacity="0.14"/><circle cx="562" cy="12" r="3" fill="#B8D833" opacity="0.14"/><circle cx="612" cy="12" r="2.2" fill="#B8D833" opacity="0.14"/><circle cx="662" cy="12" r="2.6" fill="#B8D833" opacity="0.14"/><circle cx="712" cy="12" r="3" fill="#B8D833" opacity="0.14"/><circle cx="762" cy="12" r="2.2" fill="#B8D833" opacity="0.14"/><circle cx="812" cy="12" r="2.6" fill="#B8D833" opacity="0.14"/><circle cx="862" cy="12" r="3" fill="#B8D833" opacity="0.14"/><circle cx="912" cy="12" r="2.2" fill="#B8D833" opacity="0.14"/><circle cx="962" cy="12" r="2.6" fill="#B8D833" opacity="0.14"/><circle cx="1012" cy="12" r="3" fill="#B8D833" opacity="0.14"/><circle cx="1062" cy="12" r="2.2" fill="#B8D833" opacity="0.14"/><circle cx="37" cy="60" r="2.6" fill="#B8D833" opacity="0.14"/><circle cx="87" cy="60" r="3" fill="#B8D833" opacity="0.14"/><circle cx="137" cy="60" r="2.2" fill="#B8D833" opacity="0.14"/><circle cx="187" cy="60" r="2.6" fill="#B8D833" opacity="0.14"/><circle cx="237" cy="60" r="3" fill="#B8D833" opacity="0.14"/><circle cx="287" cy="60" r="2.2" fill="#B8D833" opacity="0.14"/><circle cx="337" cy="60" r="2.6" fill="#B8D833" opacity="0.14"/><circle cx="387" cy="60" r="3" fill="#B8D833" opacity="0.14"/><circle cx="437" cy="60" r="2.2" fill="#B8D833" opacity="0.14"/><circle cx="487" cy="60" r="2.6" fill="#B8D833" opacity="0.14"/><circle cx="537" cy="60" r="3" fill="#B8D833" opacity="0.14"/><circle cx="587" cy="60" r="2.2" fill="#B8D833" opacity="0.14"/><circle cx="637" cy="60" r="2.6" fill="#B8D833" opacity="0.14"/><circle cx="687" cy="60" r="3" fill="#B8D833" opacity="0.14"/><circle cx="737" cy="60" r="2.2" fill="#B8D833" opacity="0.14"/><circle cx="787" cy="60" r="2.6" fill="#B8D833" opacity="0.14"/><circle cx="837" cy="60" r="3" fill="#B8D833" opacity="0.14"/><circle cx="887" cy="60" r="2.2" fill="#B8D833" opacity="0.14"/><circle cx="937" cy="60" r="2.6" fill="#B8D833" opacity="0.14"/><circle cx="987" cy="60" r="3" fill="#B8D833" opacity="0.14"/><circle cx="1037" cy="60" r="2.2" fill="#B8D833" opacity="0.14"/><circle cx="1087" cy="60" r="2.6" fill="#B8D833" opacity="0.14"/><circle cx="12" cy="108" r="3" fill="#B8D833" opacity="0.14"/><circle cx="62" cy="108" r="2.2" fill="#B8D833" opacity="0.14"/><circle cx="112" cy="108" r="2.6" fill="#B8D833" opacity="0.14"/><circle cx="162" cy="108" r="3" fill="#B8D833" opacity="0.14"/><circle cx="212" cy="108" r="2.2" fill="#B8D833" opacity="0.14"/><circle cx="262" cy="108" r="2.6" fill="#B8D833" opacity="0.14"/><circle cx="312" cy="108" r="3" fill="#B8D833" opacity="0.14"/><circle cx="362" cy="108" r="2.2" fill="#B8D833" opacity="0.14"/><circle cx="412" cy="108" r="2.6" fill="#B8D833" opacity="0.14"/><circle cx="462" cy="108" r="3" fill="#B8D833" opacity="0.14"/><circle cx="512" cy="108" r="2.2" fill="#B8D833" opacity="0.14"/><circle cx="562" cy="108" r="2.6" fill="#B8D833" opacity="0.14"/><circle cx="612" cy="108" r="3" fill="#B8D833" opacity="0.14"/><circle cx="662" cy="108" r="2.2" fill="#B8D833" opacity="0.14"/><circle cx="712" cy="108" r="2.6" fill="#B8D833" opacity="0.14"/><circle cx="762" cy="108" r="3" fill="#B8D833" opacity="0.14"/><circle cx="812" cy="108" r="2.2" fill="#B8D833" opacity="0.14"/><circle cx="862" cy="108" r="2.6" fill="#B8D833" opacity="0.14"/><circle cx="912" cy="108" r="3" fill="#B8D833" opacity="0.14"/><circle cx="962" cy="108" r="2.2" fill="#B8D833" opacity="0.14"/><circle cx="1012" cy="108" r="2.6" fill="#B8D833" opacity="0.14"/><circle cx="1062" cy="108" r="3" fill="#B8D833" opacity="0.14"/><circle cx="37" cy="156" r="2.2" fill="#B8D833" opacity="0.14"/><circle cx="87" cy="156" r="2.6" fill="#B8D833" opacity="0.14"/><circle cx="137" cy="156" r="3" fill="#B8D833" opacity="0.14"/><circle cx="187" cy="156" r="2.2" fill="#B8D833" opacity="0.14"/><circle cx="237" cy="156" r="2.6" fill="#B8D833" opacity="0.14"/><circle cx="287" cy="156" r="3" fill="#B8D833" opacity="0.14"/><circle cx="337" cy="156" r="2.2" fill="#B8D833" opacity="0.14"/><circle cx="387" cy="156" r="2.6" fill="#B8D833" opacity="0.14"/><circle cx="437" cy="156" r="3" fill="#B8D833" opacity="0.14"/><circle cx="487" cy="156" r="2.2" fill="#B8D833" opacity="0.14"/><circle cx="537" cy="156" r="2.6" fill="#B8D833" opacity="0.14"/><circle cx="587" cy="156" r="3" fill="#B8D833" opacity="0.14"/><circle cx="637" cy="156" r="2.2" fill="#B8D833" opacity="0.14"/><circle cx="687" cy="156" r="2.6" fill="#B8D833" opacity="0.14"/><circle cx="737" cy="156" r="3" fill="#B8D833" opacity="0.14"/><circle cx="787" cy="156" r="2.2" fill="#B8D833" opacity="0.14"/><circle cx="837" cy="156" r="2.6" fill="#B8D833" opacity="0.14"/><circle cx="887" cy="156" r="3" fill="#B8D833" opacity="0.14"/><circle cx="937" cy="156" r="2.2" fill="#B8D833" opacity="0.14"/><circle cx="987" cy="156" r="2.6" fill="#B8D833" opacity="0.14"/><circle cx="1037" cy="156" r="3" fill="#B8D833" opacity="0.14"/><circle cx="1087" cy="156" r="2.2" fill="#B8D833" opacity="0.14"/><circle cx="12" cy="204" r="2.6" fill="#B8D833" opacity="0.14"/><circle cx="62" cy="204" r="3" fill="#B8D833" opacity="0.14"/><circle cx="112" cy="204" r="2.2" fill="#B8D833" opacity="0.14"/><circle cx="162" cy="204" r="2.6" fill="#B8D833" opacity="0.14"/><circle cx="212" cy="204" r="3" fill="#B8D833" opacity="0.14"/><circle cx="262" cy="204" r="2.2" fill="#B8D833" opacity="0.14"/><circle cx="312" cy="204" r="2.6" fill="#B8D833" opacity="0.14"/><circle cx="362" cy="204" r="3" fill="#B8D833" opacity="0.14"/><circle cx="412" cy="204" r="2.2" fill="#B8D833" opacity="0.14"/><circle cx="462" cy="204" r="2.6" fill="#B8D833" opacity="0.14"/><circle cx="512" cy="204" r="3" fill="#B8D833" opacity="0.14"/><circle cx="562" cy="204" r="2.2" fill="#B8D833" opacity="0.14"/><circle cx="612" cy="204" r="2.6" fill="#B8D833" opacity="0.14"/><circle cx="662" cy="204" r="3" fill="#B8D833" opacity="0.14"/><circle cx="712" cy="204" r="2.2" fill="#B8D833" opacity="0.14"/><circle cx="762" cy="204" r="2.6" fill="#B8D833" opacity="0.14"/><circle cx="812" cy="204" r="3" fill="#B8D833" opacity="0.14"/><circle cx="862" cy="204" r="2.2" fill="#B8D833" opacity="0.14"/><circle cx="912" cy="204" r="2.6" fill="#B8D833" opacity="0.14"/><circle cx="962" cy="204" r="3" fill="#B8D833" opacity="0.14"/><circle cx="1012" cy="204" r="2.2" fill="#B8D833" opacity="0.14"/><circle cx="1062" cy="204" r="2.6" fill="#B8D833" opacity="0.14"/><circle cx="37" cy="252" r="3" fill="#B8D833" opacity="0.14"/><circle cx="87" cy="252" r="2.2" fill="#B8D833" opacity="0.14"/><circle cx="137" cy="252" r="2.6" fill="#B8D833" opacity="0.14"/><circle cx="187" cy="252" r="3" fill="#B8D833" opacity="0.14"/><circle cx="237" cy="252" r="2.2" fill="#B8D833" opacity="0.14"/><circle cx="287" cy="252" r="2.6" fill="#B8D833" opacity="0.14"/><circle cx="337" cy="252" r="3" fill="#B8D833" opacity="0.14"/><circle cx="387" cy="252" r="2.2" fill="#B8D833" opacity="0.14"/><circle cx="437" cy="252" r="2.6" fill="#B8D833" opacity="0.14"/><circle cx="487" cy="252" r="3" fill="#B8D833" opacity="0.14"/><circle cx="537" cy="252" r="2.2" fill="#B8D833" opacity="0.14"/><circle cx="587" cy="252" r="2.6" fill="#B8D833" opacity="0.14"/><circle cx="637" cy="252" r="3" fill="#B8D833" opacity="0.14"/><circle cx="687" cy="252" r="2.2" fill="#B8D833" opacity="0.14"/><circle cx="737" cy="252" r="2.6" fill="#B8D833" opacity="0.14"/><circle cx="787" cy="252" r="3" fill="#B8D833" opacity="0.14"/><circle cx="837" cy="252" r="2.2" fill="#B8D833" opacity="0.14"/><circle cx="887" cy="252" r="2.6" fill="#B8D833" opacity="0.14"/><circle cx="937" cy="252" r="3" fill="#B8D833" opacity="0.14"/><circle cx="987" cy="252" r="2.2" fill="#B8D833" opacity="0.14"/><circle cx="1037" cy="252" r="2.6" fill="#B8D833" opacity="0.14"/><circle cx="1087" cy="252" r="3" fill="#B8D833" opacity="0.14"/><circle cx="12" cy="300" r="2.2" fill="#B8D833" opacity="0.14"/><circle cx="62" cy="300" r="2.6" fill="#B8D833" opacity="0.14"/><circle cx="112" cy="300" r="3" fill="#B8D833" opacity="0.14"/><circle cx="162" cy="300" r="2.2" fill="#B8D833" opacity="0.14"/><circle cx="212" cy="300" r="2.6" fill="#B8D833" opacity="0.14"/><circle cx="262" cy="300" r="3" fill="#B8D833" opacity="0.14"/><circle cx="312" cy="300" r="2.2" fill="#B8D833" opacity="0.14"/><circle cx="362" cy="300" r="2.6" fill="#B8D833" opacity="0.14"/><circle cx="412" cy="300" r="3" fill="#B8D833" opacity="0.14"/><circle cx="462" cy="300" r="2.2" fill="#B8D833" opacity="0.14"/><circle cx="512" cy="300" r="2.6" fill="#B8D833" opacity="0.14"/><circle cx="562" cy="300" r="3" fill="#B8D833" opacity="0.14"/><circle cx="612" cy="300" r="2.2" fill="#B8D833" opacity="0.14"/><circle cx="662" cy="300" r="2.6" fill="#B8D833" opacity="0.14"/><circle cx="712" cy="300" r="3" fill="#B8D833" opacity="0.14"/><circle cx="762" cy="300" r="2.2" fill="#B8D833" opacity="0.14"/><circle cx="812" cy="300" r="2.6" fill="#B8D833" opacity="0.14"/><circle cx="862" cy="300" r="3" fill="#B8D833" opacity="0.14"/><circle cx="912" cy="300" r="2.2" fill="#B8D833" opacity="0.14"/><circle cx="962" cy="300" r="2.6" fill="#B8D833" opacity="0.14"/><circle cx="1012" cy="300" r="3" fill="#B8D833" opacity="0.14"/><circle cx="1062" cy="300" r="2.2" fill="#B8D833" opacity="0.14"/><circle cx="37" cy="348" r="2.6" fill="#B8D833" opacity="0.14"/><circle cx="87" cy="348" r="3" fill="#B8D833" opacity="0.14"/><circle cx="137" cy="348" r="2.2" fill="#B8D833" opacity="0.14"/><circle cx="187" cy="348" r="2.6" fill="#B8D833" opacity="0.14"/><circle cx="237" cy="348" r="3" fill="#B8D833" opacity="0.14"/><circle cx="287" cy="348" r="2.2" fill="#B8D833" opacity="0.14"/><circle cx="337" cy="348" r="2.6" fill="#B8D833" opacity="0.14"/><circle cx="387" cy="348" r="3" fill="#B8D833" opacity="0.14"/><circle cx="437" cy="348" r="2.2" fill="#B8D833" opacity="0.14"/><circle cx="487" cy="348" r="2.6" fill="#B8D833" opacity="0.14"/><circle cx="537" cy="348" r="3" fill="#B8D833" opacity="0.14"/><circle cx="587" cy="348" r="2.2" fill="#B8D833" opacity="0.14"/><circle cx="637" cy="348" r="2.6" fill="#B8D833" opacity="0.14"/><circle cx="687" cy="348" r="3" fill="#B8D833" opacity="0.14"/><circle cx="737" cy="348" r="2.2" fill="#B8D833" opacity="0.14"/><circle cx="787" cy="348" r="2.6" fill="#B8D833" opacity="0.14"/><circle cx="837" cy="348" r="3" fill="#B8D833" opacity="0.14"/><circle cx="887" cy="348" r="2.2" fill="#B8D833" opacity="0.14"/><circle cx="937" cy="348" r="2.6" fill="#B8D833" opacity="0.14"/><circle cx="987" cy="348" r="3" fill="#B8D833" opacity="0.14"/><circle cx="1037" cy="348" r="2.2" fill="#B8D833" opacity="0.14"/><circle cx="1087" cy="348" r="2.6" fill="#B8D833" opacity="0.14"/><circle cx="12" cy="396" r="3" fill="#B8D833" opacity="0.14"/><circle cx="62" cy="396" r="2.2" fill="#B8D833" opacity="0.14"/><circle cx="112" cy="396" r="2.6" fill="#B8D833" opacity="0.14"/><circle cx="162" cy="396" r="3" fill="#B8D833" opacity="0.14"/><circle cx="212" cy="396" r="2.2" fill="#B8D833" opacity="0.14"/><circle cx="262" cy="396" r="2.6" fill="#B8D833" opacity="0.14"/><circle cx="312" cy="396" r="3" fill="#B8D833" opacity="0.14"/><circle cx="362" cy="396" r="2.2" fill="#B8D833" opacity="0.14"/><circle cx="412" cy="396" r="2.6" fill="#B8D833" opacity="0.14"/><circle cx="462" cy="396" r="3" fill="#B8D833" opacity="0.14"/><circle cx="512" cy="396" r="2.2" fill="#B8D833" opacity="0.14"/><circle cx="562" cy="396" r="2.6" fill="#B8D833" opacity="0.14"/><circle cx="612" cy="396" r="3" fill="#B8D833" opacity="0.14"/><circle cx="662" cy="396" r="2.2" fill="#B8D833" opacity="0.14"/><circle cx="712" cy="396" r="2.6" fill="#B8D833" opacity="0.14"/><circle cx="762" cy="396" r="3" fill="#B8D833" opacity="0.14"/><circle cx="812" cy="396" r="2.2" fill="#B8D833" opacity="0.14"/><circle cx="862" cy="396" r="2.6" fill="#B8D833" opacity="0.14"/><circle cx="912" cy="396" r="3" fill="#B8D833" opacity="0.14"/><circle cx="962" cy="396" r="2.2" fill="#B8D833" opacity="0.14"/><circle cx="1012" cy="396" r="2.6" fill="#B8D833" opacity="0.14"/><circle cx="1062" cy="396" r="3" fill="#B8D833" opacity="0.14"/><circle cx="37" cy="444" r="2.2" fill="#B8D833" opacity="0.14"/><circle cx="87" cy="444" r="2.6" fill="#B8D833" opacity="0.14"/><circle cx="137" cy="444" r="3" fill="#B8D833" opacity="0.14"/><circle cx="187" cy="444" r="2.2" fill="#B8D833" opacity="0.14"/><circle cx="237" cy="444" r="2.6" fill="#B8D833" opacity="0.14"/><circle cx="287" cy="444" r="3" fill="#B8D833" opacity="0.14"/><circle cx="337" cy="444" r="2.2" fill="#B8D833" opacity="0.14"/><circle cx="387" cy="444" r="2.6" fill="#B8D833" opacity="0.14"/><circle cx="437" cy="444" r="3" fill="#B8D833" opacity="0.14"/><circle cx="487" cy="444" r="2.2" fill="#B8D833" opacity="0.14"/><circle cx="537" cy="444" r="2.6" fill="#B8D833" opacity="0.14"/><circle cx="587" cy="444" r="3" fill="#B8D833" opacity="0.14"/><circle cx="637" cy="444" r="2.2" fill="#B8D833" opacity="0.14"/><circle cx="687" cy="444" r="2.6" fill="#B8D833" opacity="0.14"/><circle cx="737" cy="444" r="3" fill="#B8D833" opacity="0.14"/><circle cx="787" cy="444" r="2.2" fill="#B8D833" opacity="0.14"/><circle cx="837" cy="444" r="2.6" fill="#B8D833" opacity="0.14"/><circle cx="887" cy="444" r="3" fill="#B8D833" opacity="0.14"/><circle cx="937" cy="444" r="2.2" fill="#B8D833" opacity="0.14"/><circle cx="987" cy="444" r="2.6" fill="#B8D833" opacity="0.14"/><circle cx="1037" cy="444" r="3" fill="#B8D833" opacity="0.14"/><circle cx="1087" cy="444" r="2.2" fill="#B8D833" opacity="0.14"/><circle cx="12" cy="492" r="2.6" fill="#B8D833" opacity="0.14"/><circle cx="62" cy="492" r="3" fill="#B8D833" opacity="0.14"/><circle cx="112" cy="492" r="2.2" fill="#B8D833" opacity="0.14"/><circle cx="162" cy="492" r="2.6" fill="#B8D833" opacity="0.14"/><circle cx="212" cy="492" r="3" fill="#B8D833" opacity="0.14"/><circle cx="262" cy="492" r="2.2" fill="#B8D833" opacity="0.14"/><circle cx="312" cy="492" r="2.6" fill="#B8D833" opacity="0.14"/><circle cx="362" cy="492" r="3" fill="#B8D833" opacity="0.14"/><circle cx="412" cy="492" r="2.2" fill="#B8D833" opacity="0.14"/><circle cx="462" cy="492" r="2.6" fill="#B8D833" opacity="0.14"/><circle cx="512" cy="492" r="3" fill="#B8D833" opacity="0.14"/><circle cx="562" cy="492" r="2.2" fill="#B8D833" opacity="0.14"/><circle cx="612" cy="492" r="2.6" fill="#B8D833" opacity="0.14"/><circle cx="662" cy="492" r="3" fill="#B8D833" opacity="0.14"/><circle cx="712" cy="492" r="2.2" fill="#B8D833" opacity="0.14"/><circle cx="762" cy="492" r="2.6" fill="#B8D833" opacity="0.14"/><circle cx="812" cy="492" r="3" fill="#B8D833" opacity="0.14"/><circle cx="862" cy="492" r="2.2" fill="#B8D833" opacity="0.14"/><circle cx="912" cy="492" r="2.6" fill="#B8D833" opacity="0.14"/><circle cx="962" cy="492" r="3" fill="#B8D833" opacity="0.14"/><circle cx="1012" cy="492" r="2.2" fill="#B8D833" opacity="0.14"/><circle cx="1062" cy="492" r="2.6" fill="#B8D833" opacity="0.14"/><circle cx="37" cy="540" r="3" fill="#B8D833" opacity="0.14"/><circle cx="87" cy="540" r="2.2" fill="#B8D833" opacity="0.14"/><circle cx="137" cy="540" r="2.6" fill="#B8D833" opacity="0.14"/><circle cx="187" cy="540" r="3" fill="#B8D833" opacity="0.14"/><circle cx="237" cy="540" r="2.2" fill="#B8D833" opacity="0.14"/><circle cx="287" cy="540" r="2.6" fill="#B8D833" opacity="0.14"/><circle cx="337" cy="540" r="3" fill="#B8D833" opacity="0.14"/><circle cx="387" cy="540" r="2.2" fill="#B8D833" opacity="0.14"/><circle cx="437" cy="540" r="2.6" fill="#B8D833" opacity="0.14"/><circle cx="487" cy="540" r="3" fill="#B8D833" opacity="0.14"/><circle cx="537" cy="540" r="2.2" fill="#B8D833" opacity="0.14"/><circle cx="587" cy="540" r="2.6" fill="#B8D833" opacity="0.14"/><circle cx="637" cy="540" r="3" fill="#B8D833" opacity="0.14"/><circle cx="687" cy="540" r="2.2" fill="#B8D833" opacity="0.14"/><circle cx="737" cy="540" r="2.6" fill="#B8D833" opacity="0.14"/><circle cx="787" cy="540" r="3" fill="#B8D833" opacity="0.14"/><circle cx="837" cy="540" r="2.2" fill="#B8D833" opacity="0.14"/><circle cx="887" cy="540" r="2.6" fill="#B8D833" opacity="0.14"/><circle cx="937" cy="540" r="3" fill="#B8D833" opacity="0.14"/><circle cx="987" cy="540" r="2.2" fill="#B8D833" opacity="0.14"/><circle cx="1037" cy="540" r="2.6" fill="#B8D833" opacity="0.14"/><circle cx="1087" cy="540" r="3" fill="#B8D833" opacity="0.14"/><circle cx="12" cy="588" r="2.2" fill="#B8D833" opacity="0.14"/><circle cx="62" cy="588" r="2.6" fill="#B8D833" opacity="0.14"/><circle cx="112" cy="588" r="3" fill="#B8D833" opacity="0.14"/><circle cx="162" cy="588" r="2.2" fill="#B8D833" opacity="0.14"/><circle cx="212" cy="588" r="2.6" fill="#B8D833" opacity="0.14"/><circle cx="262" cy="588" r="3" fill="#B8D833" opacity="0.14"/><circle cx="312" cy="588" r="2.2" fill="#B8D833" opacity="0.14"/><circle cx="362" cy="588" r="2.6" fill="#B8D833" opacity="0.14"/><circle cx="412" cy="588" r="3" fill="#B8D833" opacity="0.14"/><circle cx="462" cy="588" r="2.2" fill="#B8D833" opacity="0.14"/><circle cx="512" cy="588" r="2.6" fill="#B8D833" opacity="0.14"/><circle cx="562" cy="588" r="3" fill="#B8D833" opacity="0.14"/><circle cx="612" cy="588" r="2.2" fill="#B8D833" opacity="0.14"/><circle cx="662" cy="588" r="2.6" fill="#B8D833" opacity="0.14"/><circle cx="712" cy="588" r="3" fill="#B8D833" opacity="0.14"/><circle cx="762" cy="588" r="2.2" fill="#B8D833" opacity="0.14"/><circle cx="812" cy="588" r="2.6" fill="#B8D833" opacity="0.14"/><circle cx="862" cy="588" r="3" fill="#B8D833" opacity="0.14"/><circle cx="912" cy="588" r="2.2" fill="#B8D833" opacity="0.14"/><circle cx="962" cy="588" r="2.6" fill="#B8D833" opacity="0.14"/><circle cx="1012" cy="588" r="3" fill="#B8D833" opacity="0.14"/><circle cx="1062" cy="588" r="2.2" fill="#B8D833" opacity="0.14"/><circle cx="37" cy="636" r="2.6" fill="#B8D833" opacity="0.14"/><circle cx="87" cy="636" r="3" fill="#B8D833" opacity="0.14"/><circle cx="137" cy="636" r="2.2" fill="#B8D833" opacity="0.14"/><circle cx="187" cy="636" r="2.6" fill="#B8D833" opacity="0.14"/><circle cx="237" cy="636" r="3" fill="#B8D833" opacity="0.14"/><circle cx="287" cy="636" r="2.2" fill="#B8D833" opacity="0.14"/><circle cx="337" cy="636" r="2.6" fill="#B8D833" opacity="0.14"/><circle cx="387" cy="636" r="3" fill="#B8D833" opacity="0.14"/><circle cx="437" cy="636" r="2.2" fill="#B8D833" opacity="0.14"/><circle cx="487" cy="636" r="2.6" fill="#B8D833" opacity="0.14"/><circle cx="537" cy="636" r="3" fill="#B8D833" opacity="0.14"/><circle cx="587" cy="636" r="2.2" fill="#B8D833" opacity="0.14"/><circle cx="637" cy="636" r="2.6" fill="#B8D833" opacity="0.14"/><circle cx="687" cy="636" r="3" fill="#B8D833" opacity="0.14"/><circle cx="737" cy="636" r="2.2" fill="#B8D833" opacity="0.14"/><circle cx="787" cy="636" r="2.6" fill="#B8D833" opacity="0.14"/><circle cx="837" cy="636" r="3" fill="#B8D833" opacity="0.14"/><circle cx="887" cy="636" r="2.2" fill="#B8D833" opacity="0.14"/><circle cx="937" cy="636" r="2.6" fill="#B8D833" opacity="0.14"/><circle cx="987" cy="636" r="3" fill="#B8D833" opacity="0.14"/><circle cx="1037" cy="636" r="2.2" fill="#B8D833" opacity="0.14"/><circle cx="1087" cy="636" r="2.6" fill="#B8D833" opacity="0.14"/><circle cx="12" cy="684" r="3" fill="#B8D833" opacity="0.14"/><circle cx="62" cy="684" r="2.2" fill="#B8D833" opacity="0.14"/><circle cx="112" cy="684" r="2.6" fill="#B8D833" opacity="0.14"/><circle cx="162" cy="684" r="3" fill="#B8D833" opacity="0.14"/><circle cx="212" cy="684" r="2.2" fill="#B8D833" opacity="0.14"/><circle cx="262" cy="684" r="2.6" fill="#B8D833" opacity="0.14"/><circle cx="312" cy="684" r="3" fill="#B8D833" opacity="0.14"/><circle cx="362" cy="684" r="2.2" fill="#B8D833" opacity="0.14"/><circle cx="412" cy="684" r="2.6" fill="#B8D833" opacity="0.14"/><circle cx="462" cy="684" r="3" fill="#B8D833" opacity="0.14"/><circle cx="512" cy="684" r="2.2" fill="#B8D833" opacity="0.14"/><circle cx="562" cy="684" r="2.6" fill="#B8D833" opacity="0.14"/><circle cx="612" cy="684" r="3" fill="#B8D833" opacity="0.14"/><circle cx="662" cy="684" r="2.2" fill="#B8D833" opacity="0.14"/><circle cx="712" cy="684" r="2.6" fill="#B8D833" opacity="0.14"/><circle cx="762" cy="684" r="3" fill="#B8D833" opacity="0.14"/><circle cx="812" cy="684" r="2.2" fill="#B8D833" opacity="0.14"/><circle cx="862" cy="684" r="2.6" fill="#B8D833" opacity="0.14"/><circle cx="912" cy="684" r="3" fill="#B8D833" opacity="0.14"/><circle cx="962" cy="684" r="2.2" fill="#B8D833" opacity="0.14"/><circle cx="1012" cy="684" r="2.6" fill="#B8D833" opacity="0.14"/><circle cx="1062" cy="684" r="3" fill="#B8D833" opacity="0.14"/><circle cx="37" cy="732" r="2.2" fill="#B8D833" opacity="0.14"/><circle cx="87" cy="732" r="2.6" fill="#B8D833" opacity="0.14"/><circle cx="137" cy="732" r="3" fill="#B8D833" opacity="0.14"/><circle cx="187" cy="732" r="2.2" fill="#B8D833" opacity="0.14"/><circle cx="237" cy="732" r="2.6" fill="#B8D833" opacity="0.14"/><circle cx="287" cy="732" r="3" fill="#B8D833" opacity="0.14"/><circle cx="337" cy="732" r="2.2" fill="#B8D833" opacity="0.14"/><circle cx="387" cy="732" r="2.6" fill="#B8D833" opacity="0.14"/><circle cx="437" cy="732" r="3" fill="#B8D833" opacity="0.14"/><circle cx="487" cy="732" r="2.2" fill="#B8D833" opacity="0.14"/><circle cx="537" cy="732" r="2.6" fill="#B8D833" opacity="0.14"/><circle cx="587" cy="732" r="3" fill="#B8D833" opacity="0.14"/><circle cx="637" cy="732" r="2.2" fill="#B8D833" opacity="0.14"/><circle cx="687" cy="732" r="2.6" fill="#B8D833" opacity="0.14"/><circle cx="737" cy="732" r="3" fill="#B8D833" opacity="0.14"/><circle cx="787" cy="732" r="2.2" fill="#B8D833" opacity="0.14"/><circle cx="837" cy="732" r="2.6" fill="#B8D833" opacity="0.14"/><circle cx="887" cy="732" r="3" fill="#B8D833" opacity="0.14"/><circle cx="937" cy="732" r="2.2" fill="#B8D833" opacity="0.14"/><circle cx="987" cy="732" r="2.6" fill="#B8D833" opacity="0.14"/><circle cx="1037" cy="732" r="3" fill="#B8D833" opacity="0.14"/><circle cx="1087" cy="732" r="2.2" fill="#B8D833" opacity="0.14"/><circle cx="12" cy="780" r="2.6" fill="#B8D833" opacity="0.14"/><circle cx="62" cy="780" r="3" fill="#B8D833" opacity="0.14"/><circle cx="112" cy="780" r="2.2" fill="#B8D833" opacity="0.14"/><circle cx="162" cy="780" r="2.6" fill="#B8D833" opacity="0.14"/><circle cx="212" cy="780" r="3" fill="#B8D833" opacity="0.14"/><circle cx="262" cy="780" r="2.2" fill="#B8D833" opacity="0.14"/><circle cx="312" cy="780" r="2.6" fill="#B8D833" opacity="0.14"/><circle cx="362" cy="780" r="3" fill="#B8D833" opacity="0.14"/><circle cx="412" cy="780" r="2.2" fill="#B8D833" opacity="0.14"/><circle cx="462" cy="780" r="2.6" fill="#B8D833" opacity="0.14"/><circle cx="512" cy="780" r="3" fill="#B8D833" opacity="0.14"/><circle cx="562" cy="780" r="2.2" fill="#B8D833" opacity="0.14"/><circle cx="612" cy="780" r="2.6" fill="#B8D833" opacity="0.14"/><circle cx="662" cy="780" r="3" fill="#B8D833" opacity="0.14"/><circle cx="712" cy="780" r="2.2" fill="#B8D833" opacity="0.14"/><circle cx="762" cy="780" r="2.6" fill="#B8D833" opacity="0.14"/><circle cx="812" cy="780" r="3" fill="#B8D833" opacity="0.14"/><circle cx="862" cy="780" r="2.2" fill="#B8D833" opacity="0.14"/><circle cx="912" cy="780" r="2.6" fill="#B8D833" opacity="0.14"/><circle cx="962" cy="780" r="3" fill="#B8D833" opacity="0.14"/><circle cx="1012" cy="780" r="2.2" fill="#B8D833" opacity="0.14"/><circle cx="1062" cy="780" r="2.6" fill="#B8D833" opacity="0.14"/><circle cx="37" cy="828" r="3" fill="#B8D833" opacity="0.14"/><circle cx="87" cy="828" r="2.2" fill="#B8D833" opacity="0.14"/><circle cx="137" cy="828" r="2.6" fill="#B8D833" opacity="0.14"/><circle cx="187" cy="828" r="3" fill="#B8D833" opacity="0.14"/><circle cx="237" cy="828" r="2.2" fill="#B8D833" opacity="0.14"/><circle cx="287" cy="828" r="2.6" fill="#B8D833" opacity="0.14"/><circle cx="337" cy="828" r="3" fill="#B8D833" opacity="0.14"/><circle cx="387" cy="828" r="2.2" fill="#B8D833" opacity="0.14"/><circle cx="437" cy="828" r="2.6" fill="#B8D833" opacity="0.14"/><circle cx="487" cy="828" r="3" fill="#B8D833" opacity="0.14"/><circle cx="537" cy="828" r="2.2" fill="#B8D833" opacity="0.14"/><circle cx="587" cy="828" r="2.6" fill="#B8D833" opacity="0.14"/><circle cx="637" cy="828" r="3" fill="#B8D833" opacity="0.14"/><circle cx="687" cy="828" r="2.2" fill="#B8D833" opacity="0.14"/><circle cx="737" cy="828" r="2.6" fill="#B8D833" opacity="0.14"/><circle cx="787" cy="828" r="3" fill="#B8D833" opacity="0.14"/><circle cx="837" cy="828" r="2.2" fill="#B8D833" opacity="0.14"/><circle cx="887" cy="828" r="2.6" fill="#B8D833" opacity="0.14"/><circle cx="937" cy="828" r="3" fill="#B8D833" opacity="0.14"/><circle cx="987" cy="828" r="2.2" fill="#B8D833" opacity="0.14"/><circle cx="1037" cy="828" r="2.6" fill="#B8D833" opacity="0.14"/><circle cx="1087" cy="828" r="3" fill="#B8D833" opacity="0.14"/><circle cx="12" cy="876" r="2.2" fill="#B8D833" opacity="0.14"/><circle cx="62" cy="876" r="2.6" fill="#B8D833" opacity="0.14"/><circle cx="112" cy="876" r="3" fill="#B8D833" opacity="0.14"/><circle cx="162" cy="876" r="2.2" fill="#B8D833" opacity="0.14"/><circle cx="212" cy="876" r="2.6" fill="#B8D833" opacity="0.14"/><circle cx="262" cy="876" r="3" fill="#B8D833" opacity="0.14"/><circle cx="312" cy="876" r="2.2" fill="#B8D833" opacity="0.14"/><circle cx="362" cy="876" r="2.6" fill="#B8D833" opacity="0.14"/><circle cx="412" cy="876" r="3" fill="#B8D833" opacity="0.14"/><circle cx="462" cy="876" r="2.2" fill="#B8D833" opacity="0.14"/><circle cx="512" cy="876" r="2.6" fill="#B8D833" opacity="0.14"/><circle cx="562" cy="876" r="3" fill="#B8D833" opacity="0.14"/><circle cx="612" cy="876" r="2.2" fill="#B8D833" opacity="0.14"/><circle cx="662" cy="876" r="2.6" fill="#B8D833" opacity="0.14"/><circle cx="712" cy="876" r="3" fill="#B8D833" opacity="0.14"/><circle cx="762" cy="876" r="2.2" fill="#B8D833" opacity="0.14"/><circle cx="812" cy="876" r="2.6" fill="#B8D833" opacity="0.14"/><circle cx="862" cy="876" r="3" fill="#B8D833" opacity="0.14"/><circle cx="912" cy="876" r="2.2" fill="#B8D833" opacity="0.14"/><circle cx="962" cy="876" r="2.6" fill="#B8D833" opacity="0.14"/><circle cx="1012" cy="876" r="3" fill="#B8D833" opacity="0.14"/><circle cx="1062" cy="876" r="2.2" fill="#B8D833" opacity="0.14"/><circle cx="37" cy="924" r="2.6" fill="#B8D833" opacity="0.14"/><circle cx="87" cy="924" r="3" fill="#B8D833" opacity="0.14"/><circle cx="137" cy="924" r="2.2" fill="#B8D833" opacity="0.14"/><circle cx="187" cy="924" r="2.6" fill="#B8D833" opacity="0.14"/><circle cx="237" cy="924" r="3" fill="#B8D833" opacity="0.14"/><circle cx="287" cy="924" r="2.2" fill="#B8D833" opacity="0.14"/><circle cx="337" cy="924" r="2.6" fill="#B8D833" opacity="0.14"/><circle cx="387" cy="924" r="3" fill="#B8D833" opacity="0.14"/><circle cx="437" cy="924" r="2.2" fill="#B8D833" opacity="0.14"/><circle cx="487" cy="924" r="2.6" fill="#B8D833" opacity="0.14"/><circle cx="537" cy="924" r="3" fill="#B8D833" opacity="0.14"/><circle cx="587" cy="924" r="2.2" fill="#B8D833" opacity="0.14"/><circle cx="637" cy="924" r="2.6" fill="#B8D833" opacity="0.14"/><circle cx="687" cy="924" r="3" fill="#B8D833" opacity="0.14"/><circle cx="737" cy="924" r="2.2" fill="#B8D833" opacity="0.14"/><circle cx="787" cy="924" r="2.6" fill="#B8D833" opacity="0.14"/><circle cx="837" cy="924" r="3" fill="#B8D833" opacity="0.14"/><circle cx="887" cy="924" r="2.2" fill="#B8D833" opacity="0.14"/><circle cx="937" cy="924" r="2.6" fill="#B8D833" opacity="0.14"/><circle cx="987" cy="924" r="3" fill="#B8D833" opacity="0.14"/><circle cx="1037" cy="924" r="2.2" fill="#B8D833" opacity="0.14"/><circle cx="1087" cy="924" r="2.6" fill="#B8D833" opacity="0.14"/><circle cx="12" cy="972" r="3" fill="#B8D833" opacity="0.14"/><circle cx="62" cy="972" r="2.2" fill="#B8D833" opacity="0.14"/><circle cx="112" cy="972" r="2.6" fill="#B8D833" opacity="0.14"/><circle cx="162" cy="972" r="3" fill="#B8D833" opacity="0.14"/><circle cx="212" cy="972" r="2.2" fill="#B8D833" opacity="0.14"/><circle cx="262" cy="972" r="2.6" fill="#B8D833" opacity="0.14"/><circle cx="312" cy="972" r="3" fill="#B8D833" opacity="0.14"/><circle cx="362" cy="972" r="2.2" fill="#B8D833" opacity="0.14"/><circle cx="412" cy="972" r="2.6" fill="#B8D833" opacity="0.14"/><circle cx="462" cy="972" r="3" fill="#B8D833" opacity="0.14"/><circle cx="512" cy="972" r="2.2" fill="#B8D833" opacity="0.14"/><circle cx="562" cy="972" r="2.6" fill="#B8D833" opacity="0.14"/><circle cx="612" cy="972" r="3" fill="#B8D833" opacity="0.14"/><circle cx="662" cy="972" r="2.2" fill="#B8D833" opacity="0.14"/><circle cx="712" cy="972" r="2.6" fill="#B8D833" opacity="0.14"/><circle cx="762" cy="972" r="3" fill="#B8D833" opacity="0.14"/><circle cx="812" cy="972" r="2.2" fill="#B8D833" opacity="0.14"/><circle cx="862" cy="972" r="2.6" fill="#B8D833" opacity="0.14"/><circle cx="912" cy="972" r="3" fill="#B8D833" opacity="0.14"/><circle cx="962" cy="972" r="2.2" fill="#B8D833" opacity="0.14"/><circle cx="1012" cy="972" r="2.6" fill="#B8D833" opacity="0.14"/><circle cx="1062" cy="972" r="3" fill="#B8D833" opacity="0.14"/><circle cx="37" cy="1020" r="2.2" fill="#B8D833" opacity="0.14"/><circle cx="87" cy="1020" r="2.6" fill="#B8D833" opacity="0.14"/><circle cx="137" cy="1020" r="3" fill="#B8D833" opacity="0.14"/><circle cx="187" cy="1020" r="2.2" fill="#B8D833" opacity="0.14"/><circle cx="237" cy="1020" r="2.6" fill="#B8D833" opacity="0.14"/><circle cx="287" cy="1020" r="3" fill="#B8D833" opacity="0.14"/><circle cx="337" cy="1020" r="2.2" fill="#B8D833" opacity="0.14"/><circle cx="387" cy="1020" r="2.6" fill="#B8D833" opacity="0.14"/><circle cx="437" cy="1020" r="3" fill="#B8D833" opacity="0.14"/><circle cx="487" cy="1020" r="2.2" fill="#B8D833" opacity="0.14"/><circle cx="537" cy="1020" r="2.6" fill="#B8D833" opacity="0.14"/><circle cx="587" cy="1020" r="3" fill="#B8D833" opacity="0.14"/><circle cx="637" cy="1020" r="2.2" fill="#B8D833" opacity="0.14"/><circle cx="687" cy="1020" r="2.6" fill="#B8D833" opacity="0.14"/><circle cx="737" cy="1020" r="3" fill="#B8D833" opacity="0.14"/><circle cx="787" cy="1020" r="2.2" fill="#B8D833" opacity="0.14"/><circle cx="837" cy="1020" r="2.6" fill="#B8D833" opacity="0.14"/><circle cx="887" cy="1020" r="3" fill="#B8D833" opacity="0.14"/><circle cx="937" cy="1020" r="2.2" fill="#B8D833" opacity="0.14"/><circle cx="987" cy="1020" r="2.6" fill="#B8D833" opacity="0.14"/><circle cx="1037" cy="1020" r="3" fill="#B8D833" opacity="0.14"/><circle cx="1087" cy="1020" r="2.2" fill="#B8D833" opacity="0.14"/><circle cx="12" cy="1068" r="2.6" fill="#B8D833" opacity="0.14"/><circle cx="62" cy="1068" r="3" fill="#B8D833" opacity="0.14"/><circle cx="112" cy="1068" r="2.2" fill="#B8D833" opacity="0.14"/><circle cx="162" cy="1068" r="2.6" fill="#B8D833" opacity="0.14"/><circle cx="212" cy="1068" r="3" fill="#B8D833" opacity="0.14"/><circle cx="262" cy="1068" r="2.2" fill="#B8D833" opacity="0.14"/><circle cx="312" cy="1068" r="2.6" fill="#B8D833" opacity="0.14"/><circle cx="362" cy="1068" r="3" fill="#B8D833" opacity="0.14"/><circle cx="412" cy="1068" r="2.2" fill="#B8D833" opacity="0.14"/><circle cx="462" cy="1068" r="2.6" fill="#B8D833" opacity="0.14"/><circle cx="512" cy="1068" r="3" fill="#B8D833" opacity="0.14"/><circle cx="562" cy="1068" r="2.2" fill="#B8D833" opacity="0.14"/><circle cx="612" cy="1068" r="2.6" fill="#B8D833" opacity="0.14"/><circle cx="662" cy="1068" r="3" fill="#B8D833" opacity="0.14"/><circle cx="712" cy="1068" r="2.2" fill="#B8D833" opacity="0.14"/><circle cx="762" cy="1068" r="2.6" fill="#B8D833" opacity="0.14"/><circle cx="812" cy="1068" r="3" fill="#B8D833" opacity="0.14"/><circle cx="862" cy="1068" r="2.2" fill="#B8D833" opacity="0.14"/><circle cx="912" cy="1068" r="2.6" fill="#B8D833" opacity="0.14"/><circle cx="962" cy="1068" r="3" fill="#B8D833" opacity="0.14"/><circle cx="1012" cy="1068" r="2.2" fill="#B8D833" opacity="0.14"/><circle cx="1062" cy="1068" r="2.6" fill="#B8D833" opacity="0.14"/><circle cx="37" cy="1116" r="3" fill="#B8D833" opacity="0.14"/><circle cx="87" cy="1116" r="2.2" fill="#B8D833" opacity="0.14"/><circle cx="137" cy="1116" r="2.6" fill="#B8D833" opacity="0.14"/><circle cx="187" cy="1116" r="3" fill="#B8D833" opacity="0.14"/><circle cx="237" cy="1116" r="2.2" fill="#B8D833" opacity="0.14"/><circle cx="287" cy="1116" r="2.6" fill="#B8D833" opacity="0.14"/><circle cx="337" cy="1116" r="3" fill="#B8D833" opacity="0.14"/><circle cx="387" cy="1116" r="2.2" fill="#B8D833" opacity="0.14"/><circle cx="437" cy="1116" r="2.6" fill="#B8D833" opacity="0.14"/><circle cx="487" cy="1116" r="3" fill="#B8D833" opacity="0.14"/><circle cx="537" cy="1116" r="2.2" fill="#B8D833" opacity="0.14"/><circle cx="587" cy="1116" r="2.6" fill="#B8D833" opacity="0.14"/><circle cx="637" cy="1116" r="3" fill="#B8D833" opacity="0.14"/><circle cx="687" cy="1116" r="2.2" fill="#B8D833" opacity="0.14"/><circle cx="737" cy="1116" r="2.6" fill="#B8D833" opacity="0.14"/><circle cx="787" cy="1116" r="3" fill="#B8D833" opacity="0.14"/><circle cx="837" cy="1116" r="2.2" fill="#B8D833" opacity="0.14"/><circle cx="887" cy="1116" r="2.6" fill="#B8D833" opacity="0.14"/><circle cx="937" cy="1116" r="3" fill="#B8D833" opacity="0.14"/><circle cx="987" cy="1116" r="2.2" fill="#B8D833" opacity="0.14"/><circle cx="1037" cy="1116" r="2.6" fill="#B8D833" opacity="0.14"/><circle cx="1087" cy="1116" r="3" fill="#B8D833" opacity="0.14"/><circle cx="12" cy="1164" r="2.2" fill="#B8D833" opacity="0.14"/><circle cx="62" cy="1164" r="2.6" fill="#B8D833" opacity="0.14"/><circle cx="112" cy="1164" r="3" fill="#B8D833" opacity="0.14"/><circle cx="162" cy="1164" r="2.2" fill="#B8D833" opacity="0.14"/><circle cx="212" cy="1164" r="2.6" fill="#B8D833" opacity="0.14"/><circle cx="262" cy="1164" r="3" fill="#B8D833" opacity="0.14"/><circle cx="312" cy="1164" r="2.2" fill="#B8D833" opacity="0.14"/><circle cx="362" cy="1164" r="2.6" fill="#B8D833" opacity="0.14"/><circle cx="412" cy="1164" r="3" fill="#B8D833" opacity="0.14"/><circle cx="462" cy="1164" r="2.2" fill="#B8D833" opacity="0.14"/><circle cx="512" cy="1164" r="2.6" fill="#B8D833" opacity="0.14"/><circle cx="562" cy="1164" r="3" fill="#B8D833" opacity="0.14"/><circle cx="612" cy="1164" r="2.2" fill="#B8D833" opacity="0.14"/><circle cx="662" cy="1164" r="2.6" fill="#B8D833" opacity="0.14"/><circle cx="712" cy="1164" r="3" fill="#B8D833" opacity="0.14"/><circle cx="762" cy="1164" r="2.2" fill="#B8D833" opacity="0.14"/><circle cx="812" cy="1164" r="2.6" fill="#B8D833" opacity="0.14"/><circle cx="862" cy="1164" r="3" fill="#B8D833" opacity="0.14"/><circle cx="912" cy="1164" r="2.2" fill="#B8D833" opacity="0.14"/><circle cx="962" cy="1164" r="2.6" fill="#B8D833" opacity="0.14"/><circle cx="1012" cy="1164" r="3" fill="#B8D833" opacity="0.14"/><circle cx="1062" cy="1164" r="2.2" fill="#B8D833" opacity="0.14"/><circle cx="37" cy="1212" r="2.6" fill="#B8D833" opacity="0.14"/><circle cx="87" cy="1212" r="3" fill="#B8D833" opacity="0.14"/><circle cx="137" cy="1212" r="2.2" fill="#B8D833" opacity="0.14"/><circle cx="187" cy="1212" r="2.6" fill="#B8D833" opacity="0.14"/><circle cx="237" cy="1212" r="3" fill="#B8D833" opacity="0.14"/><circle cx="287" cy="1212" r="2.2" fill="#B8D833" opacity="0.14"/><circle cx="337" cy="1212" r="2.6" fill="#B8D833" opacity="0.14"/><circle cx="387" cy="1212" r="3" fill="#B8D833" opacity="0.14"/><circle cx="437" cy="1212" r="2.2" fill="#B8D833" opacity="0.14"/><circle cx="487" cy="1212" r="2.6" fill="#B8D833" opacity="0.14"/><circle cx="537" cy="1212" r="3" fill="#B8D833" opacity="0.14"/><circle cx="587" cy="1212" r="2.2" fill="#B8D833" opacity="0.14"/><circle cx="637" cy="1212" r="2.6" fill="#B8D833" opacity="0.14"/><circle cx="687" cy="1212" r="3" fill="#B8D833" opacity="0.14"/><circle cx="737" cy="1212" r="2.2" fill="#B8D833" opacity="0.14"/><circle cx="787" cy="1212" r="2.6" fill="#B8D833" opacity="0.14"/><circle cx="837" cy="1212" r="3" fill="#B8D833" opacity="0.14"/><circle cx="887" cy="1212" r="2.2" fill="#B8D833" opacity="0.14"/><circle cx="937" cy="1212" r="2.6" fill="#B8D833" opacity="0.14"/><circle cx="987" cy="1212" r="3" fill="#B8D833" opacity="0.14"/><circle cx="1037" cy="1212" r="2.2" fill="#B8D833" opacity="0.14"/><circle cx="1087" cy="1212" r="2.6" fill="#B8D833" opacity="0.14"/><circle cx="12" cy="1260" r="3" fill="#B8D833" opacity="0.14"/><circle cx="62" cy="1260" r="2.2" fill="#B8D833" opacity="0.14"/><circle cx="112" cy="1260" r="2.6" fill="#B8D833" opacity="0.14"/><circle cx="162" cy="1260" r="3" fill="#B8D833" opacity="0.14"/><circle cx="212" cy="1260" r="2.2" fill="#B8D833" opacity="0.14"/><circle cx="262" cy="1260" r="2.6" fill="#B8D833" opacity="0.14"/><circle cx="312" cy="1260" r="3" fill="#B8D833" opacity="0.14"/><circle cx="362" cy="1260" r="2.2" fill="#B8D833" opacity="0.14"/><circle cx="412" cy="1260" r="2.6" fill="#B8D833" opacity="0.14"/><circle cx="462" cy="1260" r="3" fill="#B8D833" opacity="0.14"/><circle cx="512" cy="1260" r="2.2" fill="#B8D833" opacity="0.14"/><circle cx="562" cy="1260" r="2.6" fill="#B8D833" opacity="0.14"/><circle cx="612" cy="1260" r="3" fill="#B8D833" opacity="0.14"/><circle cx="662" cy="1260" r="2.2" fill="#B8D833" opacity="0.14"/><circle cx="712" cy="1260" r="2.6" fill="#B8D833" opacity="0.14"/><circle cx="762" cy="1260" r="3" fill="#B8D833" opacity="0.14"/><circle cx="812" cy="1260" r="2.2" fill="#B8D833" opacity="0.14"/><circle cx="862" cy="1260" r="2.6" fill="#B8D833" opacity="0.14"/><circle cx="912" cy="1260" r="3" fill="#B8D833" opacity="0.14"/><circle cx="962" cy="1260" r="2.2" fill="#B8D833" opacity="0.14"/><circle cx="1012" cy="1260" r="2.6" fill="#B8D833" opacity="0.14"/><circle cx="1062" cy="1260" r="3" fill="#B8D833" opacity="0.14"/><circle cx="37" cy="1308" r="2.2" fill="#B8D833" opacity="0.14"/><circle cx="87" cy="1308" r="2.6" fill="#B8D833" opacity="0.14"/><circle cx="137" cy="1308" r="3" fill="#B8D833" opacity="0.14"/><circle cx="187" cy="1308" r="2.2" fill="#B8D833" opacity="0.14"/><circle cx="237" cy="1308" r="2.6" fill="#B8D833" opacity="0.14"/><circle cx="287" cy="1308" r="3" fill="#B8D833" opacity="0.14"/><circle cx="337" cy="1308" r="2.2" fill="#B8D833" opacity="0.14"/><circle cx="387" cy="1308" r="2.6" fill="#B8D833" opacity="0.14"/><circle cx="437" cy="1308" r="3" fill="#B8D833" opacity="0.14"/><circle cx="487" cy="1308" r="2.2" fill="#B8D833" opacity="0.14"/><circle cx="537" cy="1308" r="2.6" fill="#B8D833" opacity="0.14"/><circle cx="587" cy="1308" r="3" fill="#B8D833" opacity="0.14"/><circle cx="637" cy="1308" r="2.2" fill="#B8D833" opacity="0.14"/><circle cx="687" cy="1308" r="2.6" fill="#B8D833" opacity="0.14"/><circle cx="737" cy="1308" r="3" fill="#B8D833" opacity="0.14"/><circle cx="787" cy="1308" r="2.2" fill="#B8D833" opacity="0.14"/><circle cx="837" cy="1308" r="2.6" fill="#B8D833" opacity="0.14"/><circle cx="887" cy="1308" r="3" fill="#B8D833" opacity="0.14"/><circle cx="937" cy="1308" r="2.2" fill="#B8D833" opacity="0.14"/><circle cx="987" cy="1308" r="2.6" fill="#B8D833" opacity="0.14"/><circle cx="1037" cy="1308" r="3" fill="#B8D833" opacity="0.14"/><circle cx="1087" cy="1308" r="2.2" fill="#B8D833" opacity="0.14"/></g>
      <rect width="1080" height="1350" fill="url(#hvig)"/>
  <g opacity="0.22">
    <rect x="72" y="118" width="520" height="72" rx="6" fill="#FFF4D6"/>
    <rect x="72" y="210" width="460" height="88" rx="6" fill="#F2D72E"/>
    <rect x="72" y="318" width="560" height="72" rx="6" fill="#FFF4D6"/>
  </g>
</svg>