<?xml version="1.0" encoding="UTF-8"?>
<svg xmlns="http://www.w3.org/2000/svg" width="640" height="280" viewBox="0 0 640 280">
  <rect width="640" height="280" fill="#D9D9D9"/>
  <g transform="translate(80 88)"><rect x="11" y="13" width="480" height="104" rx="10" fill="#052818"/><rect x="9.9" y="11.700000000000001" width="480" height="104" rx="10" fill="#052818"/><rect x="8.8" y="10.4" width="480" height="104" rx="10" fill="#052818"/><rect x="7.700000000000001" y="9.1" width="480" height="104" rx="10" fill="#052818"/><rect x="6.6000000000000005" y="7.800000000000001" width="480" height="104" rx="10" fill="#052818"/><rect x="5.5" y="6.5" width="480" height="104" rx="10" fill="#052818"/><rect x="4.4" y="5.2" width="480" height="104" rx="10" fill="#052818"/><rect x="3.3000000000000003" y="3.9000000000000004" width="480" height="104" rx="10" fill="#052818"/><rect x="2.2" y="2.6" width="480" height="104" rx="10" fill="#052818"/><rect x="1.1" y="1.3" width="480" height="104" rx="10" fill="#052818"/>
        <rect x="0" y="0" width="480" height="104" rx="10" fill="#B8D833"/>
      </g>
</svg>