<?xml version="1.0" encoding="UTF-8"?>
<svg xmlns="http://www.w3.org/2000/svg" viewBox="20 40 170 230" role="img" aria-label="MedVirtual">
  <path fill="#fff" d="M131.13,170.42l34.1-34.1s-.02.02-.04.04l10.87-10.87c4.7-4.71,4.7-12.34,0-17.06l-17.05-17.05c-2.17-2.17-4.97-3.34-7.82-3.51-3.32-.2-6.7.97-9.24,3.51l-9.58,9.58-26.1,26.1-9.25,9.26h0l-45.19-45.19c-4.71-4.71-12.35-4.71-17.06,0l-17.05,17.05c-4.71,4.71-4.71,12.35,0,17.06l45.19,45.19-31.14,31.14c-1.01.86-2.01,1.76-2.97,2.71l-6.22,6.22h-.01s-4.85,4.86-4.85,4.86c-4.61,4.61-4.7,12.04-.28,16.77.09.1.18.2.28.29l17.05,17.05c3.28,3.28,7.97,4.27,12.12,2.98l7.08-5.12,34.31-34.32,8.6-8.6s.09.08.13.12l45.19,45.19c4.71,4.71,12.35,4.71,17.06,0l17.05-17.05c4.71-4.71,4.71-12.35,0-17.06l-45.19-45.19ZM163.42,138.04s.07-.06.1-.1c-.03.03-.07.06-.1.1Z"/>
  <circle fill="#fff" cx="97.02" cy="73.23" r="26.48"/>
</svg>
