<?xml version="1.0" encoding="UTF-8"?>
<svg xmlns="http://www.w3.org/2000/svg" xmlns:xlink="http://www.w3.org/1999/xlink" viewBox="20 40 170 230" role="img" aria-label="MedVirtual">
  <defs>
    <linearGradient id="mv-g1" x1="14.2" y1="170.42" x2="179.85" y2="170.42" gradientUnits="userSpaceOnUse">
      <stop offset=".3" stop-color="#137a9a"/>
      <stop offset=".75" stop-color="#15b1e3"/>
    </linearGradient>
    <linearGradient id="mv-g2" x1="115.34" y1="150.35" x2="166.41" y2="101.63" gradientUnits="userSpaceOnUse">
      <stop offset=".45" stop-color="#a1d7e2"/>
      <stop offset="1" stop-color="#19b1e3"/>
    </linearGradient>
    <linearGradient id="mv-g3" x1="79.27" y1="184.31" x2="31.34" y2="240.09" xlink:href="#mv-g2"/>
    <linearGradient id="mv-g4" x1="85.52" y1="61.72" x2="136.39" y2="112.6" gradientUnits="userSpaceOnUse">
      <stop offset=".28" stop-color="#24b9ce"/>
      <stop offset=".85" stop-color="#24b9ce"/>
    </linearGradient>
  </defs>
  <path fill="url(#mv-g1)" d="M176.32,232.67l-17.05,17.05c-4.71,4.71-12.35,4.71-17.06,0l-45.19-45.19c-18.83-18.84-49.37-18.84-68.21,0l34.1-34.1-45.19-45.19c-4.71-4.71-4.71-12.35,0-17.06l17.05-17.05c4.71-4.71,12.35-4.71,17.06,0l45.19,45.19h0l.17.17c18.85,18.66,49.26,18.61,68.03-.17l-34.1,34.1,45.19,45.19c4.71,4.71,4.71,12.35,0,17.06Z"/>
  <path fill="url(#mv-g2)" d="M176.07,108.43l-17.05-17.05c-2.17-2.17-4.97-3.34-7.82-3.51-3.32-.2-6.7.97-9.24,3.51l-9.58,9.58-26.1,26.1-9.5,9.51.18.17c18.74,18.55,48.91,18.61,67.7.15.11-.11.22-.21.33-.32l11.09-11.08c4.7-4.71,4.7-12.34,0-17.06Z"/>
  <path fill="url(#mv-g3)" d="M97.02,204.28l-8.73,8.73-34.31,34.32-7.08,5.12c-4.14,1.29-8.84.3-12.12-2.98l-17.05-17.05c-.1-.1-.19-.2-.28-.29-4.42-4.73-4.33-12.15.28-16.77l4.85-4.85h.01s6.22-6.23,6.22-6.23c18.7-18.71,48.95-18.84,67.81-.39.13.12.27.25.4.39Z"/>
  <circle fill="url(#mv-g4)" cx="97.02" cy="73.23" r="26.48"/>
</svg>
